<svg width="500" height="500" viewBox="0 0 500 500" fill="none" xmlns="http://www.w3.org/2000/svg">
<path d="M254 77C299.882 77 343.886 95.2267 376.329 127.671C408.773 160.114 427 204.118 427 250" stroke="#DC2626" stroke-width="21" stroke-linecap="round"/>
<path d="M427 250C427 295.882 408.773 339.886 376.329 372.329C343.886 404.773 299.882 423 254 423" stroke="#DC2626" stroke-width="21" stroke-linecap="round"/>
<path d="M254 423C208.118 423 164.114 404.773 131.671 372.329C99.2267 339.886 81 295.882 81 250" stroke="#DC2626" stroke-width="21" stroke-linecap="round"/>
<path d="M81 250C81 204.118 99.2267 160.114 131.671 127.671C164.114 95.2267 208.118 77 254 77" stroke="#DC2626" stroke-width="21" stroke-linecap="round"/>
<path d="M249.5 94L279 214L249.5 252L220 214L249.5 94Z" fill="#DC2626"/>
<path d="M249.5 403L220 283L249.5 253L279 283L249.5 403Z" fill="#DC2626"/>
<path d="M405 252L285 224L252 252L285 280L405 252Z" fill="#DC2626"/>
<path d="M100 252L220 280L250.5 252L220 224L100 252Z" fill="#DC2626"/>
<path d="M340 176L264 252L249 254V227L340 176Z" fill="#DC2626"/>
<path d="M345 332L254 281L248 250L269 256L345 332Z" fill="#DC2626"/>
<path d="M158 328L234 252H250L249 277L158 328Z" fill="#DC2626"/>
<path d="M158 176L249 227V256.5L234 252L158 176Z" fill="#DC2626"/>
<path d="M233.169 202V235.853H201V265.663H233.169V298H265.841V265.663H296V235.853H265.841V202H233.169Z" fill="white"/>
</svg>
